<svg width="154" height="36" viewBox="0 0 154 36" fill="none" xmlns="http://www.w3.org/2000/svg">
<path d="M23.5517 22.3573C23.7131 21.3889 24.3587 19.9363 24.8429 19.1293C25.1657 18.4838 25.3271 18.3224 25.0043 17.9996C24.1973 17.0312 23.5517 16.0628 22.7448 15.0944C19.6782 11.0594 16.6116 7.02447 13.545 2.98951C13.3836 2.66671 13.2222 2.66671 13.0609 2.82811C5.15233 5.41048 0.47178 14.126 3.53835 22.5187C5.79793 28.8132 11.7697 32.6868 18.5484 32.364C22.9062 32.2026 26.4569 30.2658 29.2007 27.0379C32.4287 23.1643 33.5584 18.6451 32.2673 13.8032C31.1375 9.28405 28.3937 6.05608 24.3587 3.9579C22.9062 3.15091 21.4536 2.82811 19.8396 2.50531C19.3554 2.50531 18.8712 2.18252 18.7098 1.69832C18.387 0.729931 19.194 -0.0770608 20.1624 0.0843376C23.2289 0.568533 25.9727 1.69832 28.2323 3.6351C33.397 7.67006 35.6566 13.1576 34.8496 19.6135C34.0426 27.0379 28.7165 33.0096 21.4536 34.6236C16.6116 35.7534 11.9311 34.9464 7.73471 32.2026C3.37695 29.2974 0.794577 25.2625 0.148983 20.2591C-0.49661 14.4488 0.955975 9.60684 4.50674 5.57188C6.92771 2.82811 9.83288 1.05273 13.3836 0.0843376C14.1906 -0.0770608 14.6748 -0.077061 15.159 0.729931C19.3554 6.21748 23.5517 11.705 27.7481 17.1926C28.0709 17.5154 28.0709 18.3224 27.9095 18.6451C26.9411 20.9047 25.9727 23.3257 25.0043 25.5853C24.6815 26.5537 23.3903 26.8765 22.5834 25.9081C21.9378 24.9397 21.1308 23.9713 20.3238 23.0029C20.001 22.5187 19.6782 22.0345 19.194 21.5503C19.0326 21.8731 19.0326 22.0345 18.8712 22.1959C18.2256 23.8099 17.58 25.2625 16.9344 26.7151C16.6116 27.5221 15.8046 27.8449 14.9976 27.3607C14.8362 27.1993 14.6748 27.0379 14.5134 26.7151C11.4469 22.6801 8.3803 18.6451 5.15233 14.6102C4.34534 13.6418 4.82954 12.512 6.12072 12.3506C8.7031 12.1892 11.1241 11.8664 13.7064 11.5436C14.352 11.3822 14.8362 11.705 15.159 12.1892C17.58 15.2558 19.8396 18.3224 22.2606 21.5503C22.5834 22.0345 22.9062 22.5187 23.3903 23.0029C23.5517 22.6801 23.5517 22.6801 23.5517 22.3573ZM15.4818 23.9713C15.966 22.6801 16.6116 21.3889 17.0958 20.0977C17.4186 19.4521 17.2572 19.1293 16.9344 18.4838C15.8046 17.1926 14.8362 15.74 13.8678 14.4488C13.7064 14.126 13.3836 14.126 13.0609 14.126C11.7697 14.2874 10.4785 14.4488 9.02589 14.6102C8.8645 14.6102 8.7031 14.6102 8.3803 14.6102C10.8013 17.8382 13.2222 20.9047 15.4818 23.9713Z" fill="#147A93"/>
<path d="M57.9527 20.9155L60.6799 9.58728H64.0364L59.8407 24.9014H56.4842L53.1277 12.9438L49.5614 24.9014H46.2049L42.0093 9.58728H45.3658L48.093 20.9155L51.2397 9.58728H54.806L57.9527 20.9155Z" fill="#147A93"/>
<path d="M71.169 23.8524C70.7494 24.2719 70.3298 24.6915 69.7005 24.9013C69.0711 25.1111 68.4418 25.3208 67.6027 25.3208C67.1831 25.3208 66.7635 25.3208 66.344 25.1111C65.9244 24.9013 65.5048 24.6915 65.2951 24.4817C65.0853 24.2719 64.8755 23.8524 64.6657 23.4328C64.4559 23.0132 64.4559 22.5937 64.4559 22.1741C64.4559 21.1252 64.8755 20.2861 65.5048 19.8665C66.1342 19.2372 67.1831 19.0274 68.4418 19.0274C68.8614 19.0274 69.2809 19.0274 69.9103 19.0274C70.3298 19.0274 70.7494 19.0274 71.169 19.0274V18.6078C71.169 17.9785 70.9592 17.3491 70.5396 16.9296C70.12 16.51 69.7005 16.3002 68.8614 16.3002C68.232 16.3002 67.8124 16.3002 67.1831 16.51C66.7635 16.7198 66.1342 16.9296 65.7146 17.1393L65.0853 14.8317C65.7146 14.4122 66.344 14.2024 66.9733 13.9926C67.6027 13.7828 68.4418 13.7828 69.2809 13.7828C70.7494 13.7828 72.0081 14.2024 72.8472 15.0415C73.6863 15.8807 74.1059 17.1393 74.1059 18.6078V25.3208H70.9592L71.169 23.8524ZM68.8614 23.0132C69.2809 23.0132 69.7005 23.0132 70.12 22.8035C70.5396 22.5937 70.7494 22.3839 71.169 22.1741V20.4959C70.7494 20.4959 70.5396 20.4959 70.12 20.4959C69.7005 20.4959 69.4907 20.4959 69.0711 20.7056C68.6516 20.7056 68.232 20.9154 68.0222 21.1252C67.8124 21.335 67.6027 21.5448 67.6027 21.9643C67.6027 22.3839 67.8124 22.5937 68.0222 22.8035C68.232 23.0132 68.4418 23.0132 68.8614 23.0132Z" fill="#147A93"/>
<path d="M79.5602 24.9013L75.7841 13.7828H78.9309L81.4483 21.9643L83.9656 13.7828H87.1124L83.1265 25.1111L79.5602 24.9013Z" fill="#147A93"/>
<path d="M93.1961 13.5731C94.0352 13.5731 94.6646 13.7829 95.0841 13.9927C95.7135 14.2025 96.133 14.622 96.5526 15.0416C96.9722 15.4612 97.182 15.8807 97.3917 16.5101C97.6015 17.1394 97.6015 17.7688 97.6015 18.6079C97.6015 18.8177 97.6015 19.2372 97.6015 19.447C97.6015 19.6568 97.6015 20.0764 97.3917 20.2861H90.6787C90.6787 21.1253 90.8885 21.7546 91.5178 22.1742C91.9374 22.5937 92.7765 22.8035 93.8254 22.8035C94.4548 22.8035 95.0841 22.8035 95.5037 22.5937C96.133 22.384 96.5526 22.384 96.9722 22.1742L97.3917 24.272C96.7624 24.4818 96.133 24.6916 95.5037 24.9013C94.8744 25.1111 94.0352 25.1111 93.4059 25.1111C92.5668 25.1111 91.7276 24.9013 90.8885 24.6916C90.0494 24.4818 89.6298 24.0622 89.0005 23.4329C88.5809 23.0133 88.1613 22.384 87.9515 21.5448C87.7418 20.7057 87.532 20.0764 87.532 19.2372C87.532 18.3981 87.7418 17.559 87.9515 16.9296C88.1613 16.3003 88.5809 15.6709 89.0005 15.0416C89.42 14.622 90.0494 14.2025 90.6787 13.7829C91.5178 13.5731 92.357 13.5731 93.1961 13.5731ZM92.9863 15.6709C92.357 15.6709 91.9374 15.8807 91.5178 16.3003C91.0983 16.7198 90.8885 17.3492 90.8885 17.9785H94.6646C94.6646 17.3492 94.6646 16.7198 94.245 16.3003C93.8254 15.8807 93.8254 15.6709 92.9863 15.6709Z" fill="#147A93"/>
<path d="M109.979 20.7057C109.979 21.3351 109.769 21.9644 109.559 22.5938C109.349 23.2231 108.93 23.6427 108.3 24.0622C107.881 24.4818 107.251 24.9014 106.412 25.1111C105.783 25.3209 104.944 25.5307 104.105 25.5307C103.266 25.5307 102.426 25.5307 101.587 25.3209C100.748 25.1111 99.909 24.9014 99.2797 24.4818L99.909 21.9644C100.538 22.1742 101.168 22.384 101.797 22.5938C102.426 22.8035 103.266 22.8035 103.895 22.8035C104.734 22.8035 105.363 22.5938 105.783 22.384C106.202 21.9644 106.412 21.5448 106.412 20.9155C106.412 20.2862 106.202 19.8666 105.783 19.6568C105.363 19.447 104.524 19.0275 103.685 18.6079C103.056 18.3981 102.426 17.9786 101.797 17.7688C101.168 17.559 100.748 17.1394 100.538 16.7199C100.119 16.3003 99.909 15.8807 99.6993 15.4612C99.4895 15.0416 99.4895 14.4123 99.4895 13.9927C99.4895 12.5242 99.909 11.4753 100.958 10.6362C102.007 9.79706 103.266 9.58728 104.734 9.58728C105.573 9.58728 106.412 9.58728 107.042 9.79706C107.671 10.0068 108.3 10.2166 109.139 10.6362L108.51 13.1536C107.881 12.9438 107.461 12.734 106.832 12.5242C106.202 12.3144 105.573 12.3144 104.944 12.3144C104.314 12.3144 103.685 12.5242 103.266 12.734C102.846 12.9438 102.636 13.3634 102.636 13.9927C102.636 14.2025 102.636 14.4123 102.636 14.622C102.636 14.8318 102.846 15.0416 103.056 15.0416C103.266 15.0416 103.475 15.4612 103.685 15.4612C103.895 15.671 104.314 15.8807 104.734 16.0905C105.363 16.3003 105.993 16.7199 106.412 16.9296C106.832 17.1394 107.461 17.559 107.881 17.9786C108.3 18.3981 108.72 18.8177 108.93 19.2372C109.979 19.447 109.979 19.8666 109.979 20.7057Z" fill="#147A93"/>
<path d="M117.111 13.5731C117.95 13.5731 118.58 13.7829 118.999 13.9927C119.629 14.2025 120.048 14.622 120.468 15.0416C120.887 15.4612 121.097 15.8807 121.307 16.5101C121.517 17.1394 121.517 17.7688 121.517 18.6079C121.517 18.8177 121.517 19.2372 121.517 19.447C121.517 19.6568 121.517 20.0764 121.307 20.2861H114.594C114.594 21.1253 114.804 21.7546 115.433 22.1742C115.853 22.5937 116.692 22.8035 117.741 22.8035C118.37 22.8035 118.999 22.8035 119.419 22.5937C120.048 22.384 120.468 22.384 120.887 22.1742L121.307 24.272C120.678 24.4818 120.048 24.6916 119.419 24.9013C118.789 25.1111 117.95 25.1111 117.321 25.1111C116.482 25.1111 115.643 24.9013 114.804 24.6916C113.964 24.4818 113.545 24.0622 112.916 23.4329C112.496 23.0133 112.076 22.384 111.867 21.5448C111.657 20.7057 111.447 20.0764 111.447 19.2372C111.447 18.3981 111.657 17.559 111.867 16.9296C112.076 16.3003 112.496 15.6709 112.916 15.0416C113.335 14.622 113.964 14.2025 114.594 13.7829C115.433 13.5731 116.272 13.5731 117.111 13.5731ZM116.901 15.6709C116.272 15.6709 115.853 15.8807 115.433 16.3003C115.013 16.7198 114.804 17.3492 114.804 17.9785H118.789C118.789 17.3492 118.789 16.7198 118.37 16.3003C117.95 15.8807 117.531 15.6709 116.901 15.6709Z" fill="#147A93"/>
<path d="M130.957 16.5101H130.327C129.488 16.5101 128.859 16.7198 128.439 16.9296C128.02 17.1394 127.6 17.559 127.181 17.9785V25.1111H124.034V13.7829H127.181V15.6709C127.391 15.0416 127.81 14.4122 128.23 14.2025C128.649 13.7829 129.279 13.5731 130.118 13.5731C130.537 13.5731 130.747 13.5731 131.167 13.7829L130.957 16.5101Z" fill="#147A93"/>
<path d="M135.572 24.9013L131.586 13.7828H134.733L137.25 21.9643L139.768 13.7828H142.914L138.928 25.1111L135.572 24.9013Z" fill="#147A93"/>
<path d="M149.208 13.5731C150.047 13.5731 150.676 13.7829 151.096 13.9927C151.725 14.2025 152.145 14.622 152.564 15.0416C152.984 15.4612 153.194 15.8807 153.403 16.5101C153.613 17.1394 153.613 17.7688 153.613 18.6079C153.613 18.8177 153.613 19.2372 153.613 19.447C153.613 19.8666 153.613 20.0764 153.403 20.2861H146.69C146.69 21.1253 146.9 21.7546 147.53 22.1742C147.949 22.5937 148.788 22.8035 149.837 22.8035C150.467 22.8035 151.096 22.8035 151.515 22.5937C152.145 22.384 152.564 22.384 152.984 22.1742L153.403 24.272C152.774 24.4818 152.145 24.6916 151.515 24.9013C150.886 25.1111 150.047 25.1111 149.418 25.1111C148.578 25.1111 147.739 24.9013 146.9 24.6916C146.271 24.4818 145.642 24.0622 145.012 23.4329C144.593 23.0133 144.173 22.384 143.963 21.5448C143.754 20.9155 143.544 20.0764 143.544 19.2372C143.544 18.3981 143.754 17.559 143.963 16.9296C144.173 16.3003 144.593 15.6709 145.012 15.0416C145.432 14.4122 146.061 14.2025 146.69 13.7829C147.53 13.5731 148.369 13.5731 149.208 13.5731ZM148.998 15.6709C148.369 15.6709 147.949 15.8807 147.53 16.3003C147.11 16.7198 146.9 17.3492 146.9 17.9785H150.676C150.676 17.3492 150.676 16.7198 150.257 16.3003C150.047 15.8807 149.627 15.6709 148.998 15.6709Z" fill="#147A93"/>
</svg>
